<svg version="1.0" xmlns="http://www.w3.org/2000/svg" width="152.1" height="55.9" xml:space="preserve"><path fill="#122535" d="M0 13h22v22.3H0z"/><path fill="#255379" d="M28.1 26.2h22v22.3h-22z"/><path fill="#508FC7" d="M56.5 33.6h22v22.3h-22z"/><path fill="none" d="M47.5 10.7c-.4-.5-1-.7-1.8-.7s-1.4.2-1.8.7c-.4.5-.6 1.2-.6 2.1v1.8c.1.9.3 1.6.6 2.1.4.5 1 .7 1.8.7s1.4-.3 1.8-.8c.4-.5.6-1.2.6-1.9 0-.5.1-.9.1-1.1 0-.2 0-.6-.1-1 0-.8-.2-1.4-.6-1.9zM63.5 16.5c0 .4.2.8.5 1 .4.3.8.4 1.4.4.8 0 1.5-.3 2-.8s.8-1.3.8-2.4v-.3l-2.3.4c-1.6.3-2.4.8-2.4 1.7zM146.3 10.3c-.4-.5-.9-.7-1.7-.7s-1.3.2-1.7.7c-.4.5-.6 1.2-.6 2.2v2.2c.1 1 .3 1.7.6 2.2.4.5.9.7 1.7.7s1.3-.2 1.7-.7c.4-.5.6-1.2.6-2.2v-2.2c0-1-.2-1.7-.6-2.2zM111.5 16.5c0 .4.2.8.5 1 .4.3.8.4 1.4.4.8 0 1.5-.3 2-.8s.8-1.3.8-2.4v-.3l-2.3.4c-1.6.3-2.4.8-2.4 1.7z"/><path fill="#FFF" d="M52.4 1h-3.6c-.2 0-.4.1-.5.2-.1.1-.2.3-.2.5v6c-1-1.1-2.4-1.6-4.1-1.6-1.8 0-3.2.6-4.3 1.8s-1.6 2.8-1.7 4.8v2c.1 2.1.6 3.7 1.7 4.9 1 1.1 2.5 1.7 4.3 1.7 1.9 0 3.3-.6 4.3-1.8v.9c0 .2.1.4.2.5s.3.2.5.2h3.3c.2 0 .4-.1.5-.2.1-.1.2-.3.2-.5V1.7c0-.2-.1-.4-.2-.5 0-.1-.2-.2-.4-.2zm-4.3 13.6c0 .8-.3 1.4-.6 1.9-.4.5-1 .8-1.8.8s-1.4-.2-1.8-.7c-.4-.5-.6-1.2-.6-2.1v-1.8c.1-.9.3-1.6.6-2.1.4-.5 1-.7 1.8-.7s1.4.2 1.8.7c.4.5.6 1.1.7 1.8 0 .5.1.8.1 1-.1.3-.1.7-.2 1.2zM66.3 6.1c-1.5 0-2.7.2-3.7.7-1 .4-1.7 1-2.2 1.6-.4.6-.7 1.1-.7 1.7 0 .2 0 .3.2.4.1.1.3.2.5.2h3.2c.1 0 .2-.1.3-.2.2-.1.4-.2.6-.4.3-.3.6-.5.9-.6.3-.1.6-.2.9-.2.7 0 1.1.2 1.4.5.3.3.4.8.4 1.5v.3l-3.5.5c-1.8.3-3.3.8-4.4 1.6-1.1.8-1.6 1.8-1.6 3.1 0 .8.2 1.5.7 2.2.5.7 1.1 1.2 1.9 1.6s1.7.6 2.7.6c1 0 1.9-.2 2.6-.5.7-.4 1.3-.8 1.7-1.4v1c0 .2.1.4.2.5.1.1.3.2.5.2h3.4c.2 0 .4-.1.5-.2.1-.1.2-.3.2-.5v-8.5c0-1.7-.6-3.1-1.7-4.1-1-1.1-2.7-1.6-5-1.6zm1.9 8.6c0 1-.3 1.8-.8 2.4-.5.5-1.2.8-2 .8-.5 0-1-.1-1.4-.4-.4-.3-.5-.6-.5-1 0-.8.8-1.4 2.4-1.7l2.3-.4v.3zM96.1 6.1c-.9 0-1.8.2-2.6.7-.8.4-1.4 1-1.9 1.7-.8-1.6-2.2-2.4-4.2-2.4-.9 0-1.7.2-2.4.6-.7.3-1.3.8-1.8 1.3V7c0-.2-.1-.4-.2-.5-.1-.1-.3-.2-.5-.2h-3.2c-.2 0-.4.1-.5.2-.1.1-.2.3-.2.5v13.2c0 .2.1.4.2.5.1.1.3.2.5.2h3.5c.2 0 .4-.1.5-.2s.2-.3.2-.5v-7.8c0-.8.2-1.5.6-1.9.4-.4.8-.6 1.4-.6.6 0 1.1.2 1.5.6.4.4.6 1 .6 1.9v7.8c0 .2.1.4.2.5.1.1.3.2.5.2h3.4c.2 0 .4-.1.5-.2.1-.1.2-.3.2-.5v-7.8c0-.9.2-1.5.5-1.9.4-.4.8-.6 1.4-.6.6 0 1.1.2 1.5.6.4.4.5 1 .5 1.9v7.8c0 .2.1.4.2.5s.3.2.5.2h3.4c.2 0 .4-.1.5-.2.1-.1.2-.3.2-.5v-8c0-2.1-.5-3.6-1.4-4.6-.9-1-2.1-1.5-3.6-1.5zM114.3 6.1c-1.5 0-2.7.2-3.7.7-1 .4-1.7 1-2.2 1.6-.5.6-.7 1.2-.8 1.7 0 .2 0 .3.2.4.1.1.3.2.5.2h3.2c.1 0 .2-.1.3-.2.2-.1.4-.2.6-.4.3-.3.6-.5.9-.6.3-.1.6-.2.9-.2.7 0 1.1.2 1.4.5.3.3.4.8.4 1.5v.3l-3.5.5c-1.8.3-3.3.8-4.4 1.6-1.1.8-1.6 1.8-1.6 3.1 0 .8.2 1.5.7 2.2.5.7 1.1 1.2 1.9 1.6s1.7.6 2.7.6c1 0 1.9-.2 2.6-.5.7-.4 1.3-.8 1.7-1.4v1c0 .2.1.4.2.5.1.1.3.2.5.2h3.4c.2 0 .4-.1.5-.2.1-.1.2-.3.2-.5v-8.5c0-1.7-.6-3.1-1.7-4.1-.9-1.1-2.6-1.6-4.9-1.6zm1.9 8.6c0 1-.3 1.8-.8 2.4-.5.5-1.2.8-2 .8-.5 0-1-.1-1.4-.4-.4-.3-.5-.6-.5-1 0-.8.8-1.4 2.4-1.7l2.3-.4v.3zM130.8 6.4h-3.5c-.2 0-.4.1-.5.2-.1.1-.2.3-.2.5v13.2c0 .2.1.4.2.5.1.1.3.2.5.2h3.5c.2 0 .4-.1.5-.2.1-.1.2-.3.2-.5V7.1c0-.2-.1-.4-.2-.5-.1-.2-.3-.2-.5-.2zM127.9 3.8c.1-.1.2-.3.2-.4V.6c0-.2-.1-.3-.2-.5-.1-.1-.3-.2-.5-.2h-2.7c-.2 0-.3.1-.4.2-.1.1-.2.3-.2.5v2.7c0 .2.1.3.2.4.1.1.3.2.4.2h2.7c.2 0 .4 0 .5-.1zM133.3 0h-2.7c-.2 0-.3.1-.5.2-.1.1-.2.3-.2.5v2.7c0 .2.1.3.2.4.1.1.3.2.5.2h2.7c.2 0 .3-.1.5-.2.1-.1.2-.3.2-.4V.6c0-.2-.1-.3-.2-.5-.1 0-.3-.1-.5-.1zM152.1 12.4c-.1-2-.8-3.5-2.1-4.6-1.3-1.1-3.1-1.7-5.4-1.7s-4.1.6-5.4 1.7c-1.3 1.1-2 2.7-2.1 4.6V15c.1 2 .8 3.6 2.1 4.7s3.1 1.6 5.4 1.6c2.4 0 4.2-.5 5.4-1.6 1.3-1.1 1.9-2.6 2.1-4.7 0-.5.1-.9.1-1.3s-.1-.8-.1-1.3zm-5.2 2.4c-.1 1-.3 1.7-.6 2.2-.4.5-.9.7-1.7.7s-1.3-.2-1.7-.7c-.4-.5-.6-1.2-.6-2.2v-2.2c.1-1 .3-1.7.6-2.2.4-.5.9-.7 1.7-.7s1.3.2 1.7.7c.4.5.6 1.2.6 2.2v1.1c.1.5.1.9 0 1.1z"/></svg>